HIERARCHY
ROOT wrist
{
	OFFSET 0.00 0.00 0.00
	CHANNELS 6 Xposition Yposition Zposition Xrotation Yrotation Zrotation
	JOINT riHand
	{
		OFFSET -0.04598 0.37556 -0.10882
		CHANNELS 3 Xrotation Yrotation Zrotation
		JOINT RiIndexMP
		{
			OFFSET -1.68547 2.46874 -0.24056
			CHANNELS 3 Zrotation Xrotation Yrotation
			JOINT RiIndexPIP
			{
				OFFSET -0.10277 1.47086 -0.45732
				CHANNELS 3 Xrotation Yrotation Zrotation
				JOINT RiIndexDIP
				{
					OFFSET -0.08662 0.93830 -0.07738
					CHANNELS 3 Xrotation Yrotation Zrotation
					End Site
					{
						OFFSET -0.08320 0.90131 -0.07433
					}
				}
			}
		}
		JOINT RiMiddleMP
		{
			OFFSET -0.85407 2.65552 -0.00744
			CHANNELS 3 Zrotation Xrotation Yrotation
			JOINT RiMiddlePIP
			{
				OFFSET -0.20884 1.70284 -0.28882
				CHANNELS 3 Xrotation Yrotation Zrotation
				JOINT RiMiddleDIP
				{
					OFFSET -0.13920 1.15619 -0.27019
					CHANNELS 3 Xrotation Yrotation Zrotation
					End Site
					{
						OFFSET -0.12266 1.00992 -0.20553
					}
				}
			}
		}
		JOINT RiRingMP
		{
			OFFSET 0.20418 2.54564 0.23484
			CHANNELS 3 Zrotation Xrotation Yrotation
			JOINT RiRingPIP
			{
				OFFSET -0.04574 1.65131 -0.34737
				CHANNELS 3 Xrotation Yrotation Zrotation
				JOINT RiRingDIP
				{
					OFFSET -0.02985 1.07738 -0.23665
					CHANNELS 3 Xrotation Yrotation Zrotation
					End Site
					{
						OFFSET -0.02879 1.03950 -0.21867
					}
				}
			}
		}
		JOINT RiPinkyMP
		{
			OFFSET 0.88895 2.32064 0.25776
			CHANNELS 3 Zrotation Xrotation Yrotation
			JOINT RiPinkyPIP
			{
				OFFSET 0.43367 1.29723 -0.28031
				CHANNELS 3 Xrotation Yrotation Zrotation
				JOINT RiPinkyDIP
				{
					OFFSET 0.23832 0.72354 -0.17269
					CHANNELS 3 Xrotation Yrotation Zrotation
					End Site
					{
						OFFSET 0.24280 0.72316 -0.15150
					}
				}
			}
		}
		JOINT RiThumbCMC
		{
			OFFSET -1.27353 -0.34685 -0.51300
			CHANNELS 3 Xrotation Yrotation Zrotation
			JOINT RiThumbMP
			{
				OFFSET -0.97380 1.27673 -0.24634
				CHANNELS 3 Xrotation Yrotation Zrotation
				JOINT RiThumbIP
				{
					OFFSET -0.63535 0.77080 -0.10130
					CHANNELS 3 Xrotation Yrotation Zrotation
					End Site
					{
						OFFSET -0.66228 0.82323 -0.12448
					}
				}
			}
		}
	}
}
MOTION
Frames: 14
Frame Time: 0.008333
 1.2097 46.7760 -1.0605 -125.4954 -23.7218 179.1585 -23.5217 -3.9717 -17.9332 7.3418 6.2966 1.8927 -4.8899 -0.4697 -0.5005 -5.7867 -0.5511 -0.5965 -3.5809 11.9205 1.6761 -8.2429 -1.0351 -0.3645 -4.4576 -0.5665 -0.1786 -5.4797 8.2533 -0.1248 -4.1668 -0.1143 0.0014 -1.5695 -0.0431 0.0015 4.0995 7.6760 -2.3874 -0.9640 0.3656 0.2130 -3.4188 1.2776 0.7814 17.1016 -15.0929 29.3121 -9.1352 -7.4384 -9.1377 15.3488 19.1497 15.3556
 1.2063 46.7823 -1.0696 -125.7903 -24.3239 179.1546 -24.1813 -4.5971 -18.4649 7.5841 6.9057 1.9066 -5.4388 -0.5197 -0.5591 -5.5080 -0.5260 -0.5665 -3.3701 12.3012 1.7407 -8.7223 -1.0936 -0.3902 -3.7289 -0.4749 -0.1464 -5.3380 8.3481 -0.1038 -3.7952 -0.1041 0.0016 -1.8703 -0.0513 0.0017 4.3511 7.5549 -2.3086 -0.4510 0.1716 0.0989 -3.6569 1.3645 0.8385 17.4214 -15.3199 29.2977 -8.6460 -7.1010 -8.6484 15.1084 18.7723 15.1151
 1.2077 46.7655 -1.0747 -125.2505 -24.0581 179.3133 -23.4961 -4.3107 -18.2131 7.3684 6.7154 1.8779 -5.3425 -0.5110 -0.5488 -5.8606 -0.5578 -0.6045 -3.4878 12.4058 1.7669 -9.2895 -1.1624 -0.4212 -2.9471 -0.3761 -0.1132 -5.3355 8.4793 -0.0874 -4.2705 -0.1172 0.0013 -1.4366 -0.0394 0.0014 4.2797 7.8006 -2.4281 -0.7066 0.2684 0.1556 -3.8815 1.4463 0.8927 16.5062 -14.6571 29.0584 -9.2301 -7.5032 -9.2327 15.3332 19.1251 15.3400
 1.2060 46.7765 -1.0801 -125.6538 -24.1573 179.1912 -24.2838 -4.3405 -18.3724 7.4121 7.1481 1.8653 -5.1329 -0.4919 -0.5264 -6.2776 -0.5950 -0.6496 -3.5080 12.8593 1.8567 -8.7166 -1.0929 -0.3899 -4.1311 -0.5255 -0.1641 -5.4745 8.8690 -0.0468 -4.1047 -0.1126 0.0015 -2.1722 -0.0596 0.0018 4.3396 8.0142 -2.5213 -0.4632 0.1762 0.1016 -4.0124 1.4939 0.9244 16.9857 -15.3726 28.9731 -8.4824 -6.9868 -8.4848 15.0096 18.6179 15.0162
 1.2064 46.7706 -1.0827 -125.6076 -23.9338 179.1266 -24.2071 -4.2326 -18.2281 7.4762 7.1808 1.8746 -5.5140 -0.5265 -0.5672 -5.7827 -0.5508 -0.5961 -3.4528 12.7540 1.8329 -8.5065 -1.0673 -0.3785 -4.3717 -0.5557 -0.1748 -5.4317 8.8463 -0.0473 -4.0635 -0.1115 0.0015 -2.2945 -0.0630 0.0018 4.3141 8.1809 -2.6005 -1.0767 0.4081 0.2383 -3.6398 1.3583 0.8344 16.9325 -15.1453 29.0921 -8.7185 -7.1515 -8.7210 15.0482 18.6782 15.0549
 1.2034 46.7633 -1.0839 -125.5565 -24.0488 179.1440 -23.9995 -4.3092 -18.1986 7.2770 6.6515 1.8646 -5.2791 -0.5052 -0.5420 -5.8550 -0.5573 -0.6039 -3.5239 12.3737 1.7625 -8.3121 -1.0436 -0.3681 -4.2106 -0.5355 -0.1676 -5.4702 8.5978 -0.0807 -4.1904 -0.1150 0.0014 -1.6812 -0.0461 0.0016 4.2543 8.0351 -2.5382 -0.9954 0.3775 0.2200 -3.6612 1.3661 0.8395 17.1400 -15.4445 29.1277 -8.6982 -7.1374 -8.7007 15.1631 18.8579 15.1698
 1.2006 46.7611 -1.0869 -125.5009 -24.0097 179.1546 -24.0057 -4.4886 -18.1671 7.2986 6.6024 1.8707 -5.2045 -0.4985 -0.5340 -5.6449 -0.5384 -0.5813 -3.5394 12.4054 1.7695 -8.9287 -1.1187 -0.4014 -3.2602 -0.4157 -0.1263 -5.4473 8.5302 -0.0879 -4.3421 -0.1192 0.0013 -1.5120 -0.0415 0.0015 4.2549 7.7765 -2.4193 -0.8951 0.3396 0.1976 -3.4178 1.2772 0.7812 16.7760 -14.9643 29.0377 -8.9671 -7.3232 -8.9696 15.3080 19.0856 15.3149
 1.1988 46.7703 -1.0940 -125.7321 -24.2885 179.1741 -24.6165 -4.6908 -18.5222 7.4123 7.0078 1.8719 -5.2626 -0.5037 -0.5403 -5.5781 -0.5323 -0.5741 -3.4218 12.7963 1.8393 -8.8295 -1.1066 -0.3960 -3.6041 -0.4591 -0.1410 -5.3354 8.8550 -0.0409 -4.4436 -0.1219 0.0012 -1.3318 -0.0365 0.0014 4.3503 8.0009 -2.5142 -0.6289 0.2390 0.1383 -3.6978 1.3795 0.8484 16.9303 -15.3678 28.8493 -8.2203 -6.8022 -8.2227 15.1151 18.7828 15.1219
 1.1987 46.7666 -1.0955 -125.6314 -24.0588 179.1181 -24.4581 -4.4868 -18.3084 7.3851 6.8178 1.8761 -5.3221 -0.5091 -0.5466 -5.5038 -0.5256 -0.5661 -3.4531 12.6863 1.8197 -8.3758 -1.0514 -0.3715 -4.4588 -0.5666 -0.1787 -5.3570 8.5045 -0.0856 -3.7881 -0.1039 0.0016 -1.5107 -0.0414 0.0015 4.3244 8.0410 -2.5349 -0.6692 0.2543 0.1472 -3.6516 1.3626 0.8372 17.0354 -15.3773 28.9539 -8.3868 -6.9197 -8.3891 15.0952 18.7516 15.1019
 1.1983 46.7680 -1.0982 -125.6001 -24.0125 179.1168 -24.5276 -4.4241 -18.3029 7.2934 6.9404 1.8545 -5.4413 -0.5199 -0.5594 -5.6692 -0.5405 -0.5839 -3.4513 12.6751 1.8174 -8.8811 -1.1129 -0.3988 -3.2067 -0.4090 -0.1241 -5.3871 8.5707 -0.0792 -3.5984 -0.0987 0.0017 -2.0201 -0.0554 0.0017 4.3553 8.1932 -2.6028 -0.6455 0.2453 0.1420 -3.7449 1.3966 0.8597 17.0034 -15.4344 28.8884 -8.2731 -6.8396 -8.2754 15.0956 18.7523 15.1023
 1.1970 46.7678 -1.1018 -125.4902 -23.9835 179.1737 -24.4759 -4.5445 -18.3330 7.3294 6.9770 1.8590 -5.4603 -0.5217 -0.5614 -5.5686 -0.5315 -0.5730 -3.4908 12.5775 1.8006 -8.3465 -1.0478 -0.3700 -4.1781 -0.5314 -0.1661 -5.4211 8.5100 -0.0888 -3.4662 -0.0951 0.0018 -2.1891 -0.0601 0.0018 4.3982 8.0773 -2.5455 -0.6132 0.2330 0.1348 -3.6814 1.3735 0.8444 16.5529 -14.9147 28.7353 -8.3946 -6.9252 -8.3970 15.1565 18.8476 15.1632
 1.1958 46.7773 -1.1067 -125.6621 -24.2580 179.2329 -24.9319 -4.7024 -18.6915 7.4881 7.3683 1.8676 -5.8737 -0.5589 -0.6059 -5.4245 -0.5184 -0.5576 -3.3640 12.8481 1.8459 -8.7937 -1.1023 -0.3940 -3.2699 -0.4169 -0.1267 -5.3318 8.6031 -0.0719 -2.9165 -0.0800 0.0019 -2.6051 -0.0715 0.0019 4.5255 8.2993 -2.6383 -0.5067 0.1927 0.1112 -3.8769 1.4447 0.8916 17.0876 -15.5635 28.7055 -7.6870 -6.4209 -7.6892 14.9152 18.4709 14.9218
 1.1957 46.7731 -1.1071 -125.5480 -24.0001 179.1740 -24.6866 -4.5299 -18.4409 7.4052 6.7659 1.8821 -4.6110 -0.4441 -0.4709 -6.3400 -0.6006 -0.6564 -3.3959 12.6987 1.8189 -8.7859 -1.1013 -0.3936 -3.2607 -0.4158 -0.1264 -5.3666 8.5797 -0.0768 -3.1225 -0.0857 0.0018 -2.4324 -0.0667 0.0018 4.4769 8.2602 -2.6240 -0.6219 0.2363 0.1367 -3.7826 1.4104 0.8688 17.2884 -15.4792 29.0089 -8.1095 -6.7236 -8.1118 14.9713 18.5583 14.9780
 1.1945 46.7770 -1.1121 -125.5080 -24.2244 179.3156 -24.7620 -4.6808 -18.7193 7.5064 6.9117 1.8928 -4.7395 -0.4559 -0.4845 -6.2504 -0.5926 -0.6466 -3.4028 12.8299 1.8447 -8.3613 -1.0496 -0.3708 -4.0918 -0.5205 -0.1623 -5.2934 8.7772 -0.0482 -3.2813 -0.0900 0.0018 -2.5187 -0.0691 0.0019 4.6058 8.3866 -2.6728 -0.6325 0.2404 0.1391 -3.5977 1.3430 0.8243 17.1769 -15.5795 28.9176 -7.9209 -6.5891 -7.9231 14.9270 18.4893 14.9336
